<svg width="768" height="25"
  xmlns="http://www.w3.org/2000/svg">

  <g>
    <title>background</title>
    <rect fill="none" id="canvas_background" height="25" width="768" y="-1" x="-1"/>
  </g>
  <g>
    <title>Layer 1</title>
    <path stroke="null" id="svg_1" fill="white" d="m750.328429,0c-9.642,0 -9.642,9.424337 -19.217,9.424337c-9.575,0 -9.642,-9.424337 -19.217,-9.424337c-9.574,0 -9.641,9.424337 -19.216,9.424337c-9.642,0 -9.642,-9.424337 -19.284,-9.424337c-9.641,0 -9.641,9.424337 -19.216,9.424337c-9.642,0 -9.642,-9.424337 -19.217,-9.424337c-9.641,0 -9.641,9.424337 -19.216,9.424337c-9.575,0 -9.843,-9.424337 -19.418,-9.424337c-9.641,0 -9.641,9.424337 -19.216,9.424337c-9.575,0 -9.709,-9.424337 -19.284,-9.424337c-9.641,0 -9.641,9.424337 -19.216,9.424337c-9.642,0 -9.642,-9.424337 -19.284,-9.424337c-9.641,0 -9.641,9.424337 -19.216,9.424337c-9.642,0 -9.642,-9.424337 -19.217,-9.424337c-9.574,0 -9.708,9.424337 -19.35,9.424337c-9.642,0 -9.642,-9.424337 -19.217,-9.424337c-9.641,0 -9.641,9.424337 -19.216,9.424337c-9.642,0 -9.642,-9.424337 -19.284,-9.424337c-9.641,0 -9.641,9.424337 -19.216,9.424337c-9.642,0 -9.642,-9.424337 -19.217,-9.424337c-9.641,0 -9.641,9.424337 -19.216,9.424337c-9.642,0 -9.642,-9.424337 -19.217,-9.424337c-9.641,0 -9.641,9.424337 -19.283,9.424337c-9.642,0 -9.642,-9.424337 -19.284,-9.424337c-9.641,0 -9.641,9.424337 -19.283,9.424337c-9.642,0 -9.642,-9.424337 -19.284,-9.424337c-9.641,0 -9.641,9.424337 -19.283,9.424337c-9.642,0 -9.642,-9.424337 -19.283,-9.424337c-9.642,0 -9.642,9.424337 -19.284,9.424337c-9.642,0 -9.642,-9.424337 -19.283,-9.424337c-9.642,0 -9.642,9.424337 -19.217,9.424337c-9.642,0 -9.642,-9.424337 -19.283,-9.424337c-9.642,0 -9.642,9.424337 -19.284,9.424337c-9.642,0 -9.642,-9.424337 -19.2834,-9.424337c-9.6417,0 -9.6417,9.424337 -19.2835,9.424337c-9.6417,0 -9.6417,-9.424337 -19.2834,-9.424337c-9.374,0 -9.374,9.424337 -19.0157,9.424337c-9.6417,0 -9.6417,-9.424337 -19.2165,-9.424337c-9.57481,0 -9.64176,9.424337 -19.2835,9.424337l0,13.463345l770,0l0,-13.463345c-9.642,0 -9.642,-9.424337 -19.216,-9.424337z"/>
  </g>
</svg>
