<svg width="67" height="101" viewBox="0 0 67 101" fill="none" xmlns="http://www.w3.org/2000/svg">
<path d="M57.1276 10.097C44.0322 -2.10102 22.917 -2.10102 9.82159 10.097C-3.27386 22.2951 -3.27386 42.0301 9.82159 54.2281C9.82159 54.2281 33.4746 75.8474 33.4746 100.839C33.4746 75.8474 57.1276 54.2281 57.1276 54.2281C70.2231 42.1293 70.2231 22.2951 57.1276 10.097Z" fill="white"/>
<path d="M47.6871 46.0964C47.078 42.8238 47.7886 39.2536 47.6871 35.8818C47.5856 32.1133 46.9765 28.444 46.9765 24.7747C46.9765 21.7995 47.4841 18.626 46.4689 15.7501C46.5704 15.4526 46.5704 15.0559 46.672 14.7584C46.9765 13.2708 42.0023 14.0642 41.2917 15.3534C40.7841 15.7501 40.581 16.2459 40.7841 16.6426C40.8856 16.7418 40.8856 16.841 40.8856 17.0393C39.972 21.502 38.6523 25.7664 37.1295 30.1299C36.5204 31.8158 35.9114 33.4025 35.3023 34.9893C34.4901 33.5017 33.678 31.915 32.9674 30.3282C31.0386 25.568 29.2114 20.7086 26.8765 16.1468C27.1811 14.0642 22.3083 14.2625 21.3947 16.1468C20.278 18.5269 20.3795 20.907 20.7856 23.3863C21.1917 26.2622 21.2932 29.039 21.2932 31.915C21.3947 37.4686 21.8007 42.923 21.9023 48.4765C21.3947 49.0716 21.2932 49.6666 21.8007 50.3608C22.0038 50.6583 22.3083 50.8567 22.6129 51.1542C23.9326 52.1459 27.5871 51.3525 27.5871 49.3691C27.5871 43.6172 27.1811 37.9644 26.978 32.2125C26.978 31.6175 26.978 31.1216 26.978 30.5266C27.0795 30.7249 27.1811 30.9233 27.1811 31.1216C28.0947 33.3034 29.0083 35.4851 30.328 37.5677C31.5462 39.6503 32.1553 41.8321 32.8659 44.0138C32.5614 44.3114 32.4598 44.6089 32.5614 45.0056C32.4598 45.3031 32.6629 45.4022 32.9674 45.5014C33.8811 46.2948 35.6068 45.8981 36.5204 45.5014C36.9265 45.3031 37.3326 45.1047 37.7386 44.9064C38.2462 44.6089 38.9568 43.9147 38.7538 43.3197C38.7538 43.2205 38.6523 43.0221 38.6523 42.923C39.3629 41.1379 39.6674 39.3528 40.0735 37.4686C40.4795 35.4851 41.1901 33.6009 41.9007 31.7166C42.0023 32.6092 42.0023 33.4025 42.1038 34.2951C42.4083 37.8652 42.1038 41.3362 42.1038 44.9064C42.1038 46.0964 42.2053 47.1873 42.4083 48.2782C42.5098 48.7741 42.9159 50.7575 42.8144 50.8567C41.9007 51.65 42.2053 52.6417 43.322 52.8401C44.6417 53.1376 46.2659 52.7409 47.281 51.8484C48.9053 50.46 48.0932 48.0799 47.6871 46.0964Z" fill="#6BC6B3"/>
</svg>
