<svg width="67" height="101" fill="none" xmlns="http://www.w3.org/2000/svg"><path d="M57.128 10.097c-13.096-12.198-34.211-12.198-47.306 0-13.096 12.198-13.096 31.933 0 44.131 0 0 23.653 21.62 23.653 46.611 0-24.992 23.653-46.61 23.653-46.61 13.095-12.1 13.095-31.934 0-44.132Z" fill="#fff"/><path d="M47.687 46.096c-.609-3.272.102-6.842 0-10.214-.101-3.769-.71-7.438-.71-11.107 0-2.976.507-6.149-.508-9.025.101-.297.101-.694.203-.992.305-1.487-4.67-.694-5.38.595-.508.397-.711.893-.508 1.29.102.099.102.198.102.396-.914 4.463-2.234 8.727-3.757 13.09a257.542 257.542 0 0 1-1.827 4.86 66.994 66.994 0 0 1-2.335-4.66c-1.928-4.761-3.756-9.62-6.09-14.182.304-2.083-4.569-1.884-5.482 0-1.117 2.38-1.015 4.76-.61 7.24.407 2.875.508 5.652.508 8.528.102 5.554.508 11.008.61 16.562-.508.595-.61 1.19-.102 1.884.203.297.507.496.812.793 1.32.992 4.974.198 4.974-1.785 0-5.752-.406-11.405-.609-17.157v-1.685c.101.198.203.396.203.595.914 2.181 1.827 4.363 3.147 6.446 1.218 2.082 1.827 4.264 2.538 6.446-.305.297-.406.595-.305.992-.101.297.102.396.406.495.914.794 2.64.397 3.553 0l1.219-.595c.507-.297 1.218-.991 1.015-1.586 0-.1-.102-.298-.102-.397.71-1.785 1.015-3.57 1.422-5.454.406-1.984 1.116-3.868 1.827-5.752.101.892.101 1.686.203 2.578.304 3.57 0 7.041 0 10.611 0 1.19.101 2.281.304 3.372.102.496.508 2.48.406 2.579-.913.793-.609 1.785.508 1.983 1.32.298 2.944-.1 3.959-.992 1.624-1.388.812-3.768.406-5.752Z" fill="#6BC6B3"/></svg>