<svg width="768" height="25" xmlns="http://www.w3.org/2000/svg"><path fill="none" d="M-1-1h768v25H-1z"/><path stroke="null" fill="#fff" d="M750.328 0c-9.642 0-9.642 9.424-19.217 9.424S721.47 0 711.894 0c-9.574 0-9.64 9.424-19.216 9.424-9.642 0-9.642-9.424-19.284-9.424-9.64 0-9.64 9.424-19.216 9.424-9.642 0-9.642-9.424-19.217-9.424-9.64 0-9.64 9.424-19.216 9.424-9.575 0-9.843-9.424-19.418-9.424-9.64 0-9.64 9.424-19.216 9.424-9.575 0-9.709-9.424-19.284-9.424-9.64 0-9.64 9.424-19.216 9.424C528.97 9.424 528.97 0 519.327 0c-9.64 0-9.64 9.424-19.216 9.424C490.47 9.424 490.47 0 480.894 0c-9.574 0-9.708 9.424-19.35 9.424-9.642 0-9.642-9.424-19.217-9.424-9.64 0-9.64 9.424-19.216 9.424C413.47 9.424 413.47 0 403.827 0c-9.64 0-9.64 9.424-19.216 9.424C374.97 9.424 374.97 0 365.394 0c-9.64 0-9.64 9.424-19.216 9.424-9.642 0-9.642-9.424-19.217-9.424-9.64 0-9.64 9.424-19.283 9.424-9.642 0-9.642-9.424-19.284-9.424-9.64 0-9.64 9.424-19.283 9.424C259.47 9.424 259.47 0 249.827 0c-9.64 0-9.64 9.424-19.283 9.424-9.642 0-9.642-9.424-19.283-9.424-9.642 0-9.642 9.424-19.284 9.424S182.335 0 172.694 0c-9.642 0-9.642 9.424-19.217 9.424-9.642 0-9.642-9.424-19.283-9.424-9.642 0-9.642 9.424-19.284 9.424S105.268 0 95.627 0c-9.642 0-9.642 9.424-19.283 9.424C66.702 9.424 66.702 0 57.06 0c-9.374 0-9.374 9.424-19.016 9.424C28.403 9.424 28.403 0 18.828 0 9.253 0 9.186 9.424-.456 9.424v13.464h770V9.424c-9.642 0-9.642-9.424-19.216-9.424z"/></svg>